<?xml version="1.0" encoding="utf-8"?>
<!-- Generator: Adobe Illustrator 21.0.0, SVG Export Plug-In . SVG Version: 6.00 Build 0)  -->
<svg version="1.1" id="Capa_1" xmlns="http://www.w3.org/2000/svg" xmlns:xlink="http://www.w3.org/1999/xlink" x="0px" y="0px"
	 viewBox="0 0 183 183" style="enable-background:new 0 0 183 183;" xml:space="preserve">
<style type="text/css">
	.st0{fill:#E5DCDC;}
	.st1{fill:#9B9A9A;}
</style>
<g>
	<path class="st0" d="M90.5,181C40.6,181,0,140.4,0,90.5C0,40.6,40.6,0,90.5,0C140.4,0,181,40.6,181,90.5
		C181,140.4,140.4,181,90.5,181z M90.5,10.9c-43.9,0-79.5,35.7-79.5,79.6c0,43.9,35.7,79.5,79.5,79.5c43.9,0,79.6-35.7,79.6-79.5
		C170.1,46.6,134.4,10.9,90.5,10.9z"/>
	<g>
		<path class="st1" d="M92.1,142.1c-0.5,0.4-1,0.6-1.6,0.6c-0.6,0-1.2-0.2-1.6-0.6l-36.2-36.3c-17.3-17.3-18.4-35.2-7.3-46.2
			c11-11,28.9-11,39.9,0c2.1,2.1,3.8,4.4,5.1,6.8c1.3-2.4,3-4.7,5.1-6.8c11-11.1,28.9-11.1,40,0c11,11,9.9,28.9-7.4,46.2L92.1,142.1
			z"/>
	</g>
</g>
</svg>
