
<svg version="1.1" id="Capa_1" xmlns="http://www.w3.org/2000/svg" xmlns:xlink="http://www.w3.org/1999/xlink" x="0px" y="0px" viewBox="0 0 233.8 179" style="" xml:space="preserve">
<style type="text/css">
	.st0{fill:none;stroke:#180F0A;stroke-width:4;stroke-miterlimit:10;}

	<!-- <defs>
	<style>
	 	.st0{
		 	 stroke-dasharray: 1000;
		 stroke-dashoff: 0;
		-webkit-animation: dash 4s linear forwords;
		animation: dash 4s linear forwords;
	}
	@-webkit-keyframes dash{
      from{
          stroke-dashoffset: 1000;
      }
      to {
        stroke-dashoffset: 0;
      }
  
		 }
	</style>
	</defs> -->
	
</style>

<g>
	<path class="st0 eyYYtTrT_0" d="M220.6,50.8L131.5,7.3c-7.7-3.8-20.7-3.8-28.4,0L12,50.8c-6.4,3.1-7.4,7.4-7.4,9.7c0,2.3,1,6.4,7.4,9.7
		l7.4,3.6v40.9c-4.6,1.8-7.9,6.4-7.9,11.5c0,5.1,3.3,9.7,7.7,11.5L7.7,174.4h32.2l-11.5-36.6c4.6-1.8,7.7-6.4,7.7-11.5
		c0-5.4-3.3-9.7-7.9-11.5V78.2l13.6,6.7v53.2c0,0.8,0.3,1.5,0.8,2.3c1.3,1.5,25.1,34,73.7,34s72.4-32.8,73.4-34
		c0.5-0.8,0.8-1.5,0.8-2.3v-53l30.2-14.8c6.4-3.1,7.4-7.4,7.4-9.7C227.7,58.2,227,53.9,220.6,50.8z M182.2,136.8
		c-4.1,5.1-26.1,29.7-66,29.7s-61.9-24.6-66-29.7V88.4l53,25.3c3.8,1.8,9,2.8,14.1,2.8c5.4,0,10.5-1,14.3-3.1l50.7-24.8V136.8z
		 M217,63.1l-30.7,15.1c-1.3,0-2.3,0.5-2.8,1.5l-55.5,26.9c-5.4,2.8-15.9,2.8-21.5,0L38.1,73.8l78.6-9.2c2.3-0.3,3.8-2.3,3.6-4.4
		c-0.3-2.3-2.3-3.8-4.4-3.6L24.8,67.4l-9.2-4.4c-2.3-1-2.8-2.3-2.8-2.3c0-0.3,0.5-1.3,2.8-2.3l91.1-43.8c2.8-1.3,6.7-2,10.5-2
		c4.1,0,8.2,0.8,10.7,2L217,58.2c2.3,1,2.8,2,2.8,2.6C219.8,60.8,219,62.1,217,63.1z"></path>
</g>
<style data-made-with="vivus-instant">.eyYYtTrT_0{stroke-dasharray:1881 1883;stroke-dashoffset:1882;animation:eyYYtTrT_draw 8800ms linear 0ms forwards;}@keyframes eyYYtTrT_draw{100%{stroke-dashoffset:0;}}@keyframes eyYYtTrT_fade{0%{stroke-opacity:1;}96.96969696969697%{stroke-opacity:1;}100%{stroke-opacity:0;}}</style></svg>
