
<!-- Generator: Adobe Illustrator 21.0.0, SVG Export Plug-In . SVG Version: 6.00 Build 0)  -->
<svg version="1.1" id="Capa_1" xmlns="http://www.w3.org/2000/svg" xmlns:xlink="http://www.w3.org/1999/xlink" x="0px" y="0px"
	 viewBox="0 0 294.8 294.8" style="enable-background:new 0 0 294.8 294.8;" xml:space="preserve">
<style type="text/css">
	.st0{fill:#231F20;}
	<defs>
	<style>
	 	.st0{
		 	 stroke-dasharray: 1000;
		 stroke-dashoff: 0;
		-webkit-animation: dash 5s linear forwords;
		animation: dash 5s linear forwords;
	}
	@-webkit-keyframes dash{
      from{
          stroke-dashoffset: 1000;
      }
      to {
        stroke-dashoffset: 0;
      }
  
		 }
	</style>
	</defs>
</style>
<path class="st0" d="M288.8,235.4c3.3,0,6-2.7,6-6V76c0-41.9-34.1-76-76-76h-1.4c-31.4,0-58.4,19.2-70,46.4
	C135.9,19.2,108.8,0,77.4,0H76C34.1,0,0,34.1,0,76v212.8c0,3.3,2.7,6,6,6h0.1c3.2,0,5.9-2.6,6-5.8c1.3-34.6,29.3-61.6,63.9-61.6h1.4
	c34.6,0,62.6,27.1,63.9,61.6c0.1,3.2,2.8,5.8,6,5.8h0.1h0.1c3.2,0,5.9-2.6,6-5.8c1.3-34.6,29.3-61.6,63.9-61.6h1.4
	c34.6,0,62.6,27.1,63.9,61.6c0.1,3.2,2.8,5.8,6,5.8h0.1c3.3,0,6-2.7,6-6c0-0.5-0.1-1-0.2-1.5c-1-19.2-9.2-37.1-23-50.6
	c-14.2-13.8-33-21.4-52.8-21.4h-1.4c-19.8,0-38.5,7.6-52.8,21.4c-7.5,7.3-13.3,15.8-17.2,25.2c-3.9-9.4-9.7-17.9-17.2-25.2
	c-14.2-13.8-33-21.4-52.8-21.4H76c-19.8,0-38.5,7.6-52.8,21.4c-4.3,4.2-8.1,8.8-11.2,13.7V76c0-35.3,28.7-64,64-64h1.4
	c35.3,0,64,28.7,64,64v134.4c0,3.3,2.7,6,6,6s6-2.7,6-6V76c0-35.3,28.7-64,64-64h1.4c35.3,0,64,28.7,64,64v153.4
	C282.8,232.7,285.5,235.4,288.8,235.4z"/>
</svg>
