<!--?xml version="1.0" encoding="utf-8"?-->
<!-- Generator: Adobe Illustrator 21.0.0, SVG Export Plug-In . SVG Version: 6.00 Build 0)  -->
<svg version="1.1" id="Capa_1" xmlns="http://www.w3.org/2000/svg" xmlns:xlink="http://www.w3.org/1999/xlink" x="0px" y="0px" viewBox="0 0 275 296" style="" xml:space="preserve">
<style type="text/css">
	.st0{fill:none;stroke:#000000;stroke-width:4;stroke-miterlimit:10;}
</style>
<g>
	<g>
		<path class="st0 IkVVhQYl_0" d="M104.8,206.1c-3.6-2.7-8.7-2-11.5,1.6c-13.6,18.1-34.4,28.4-57.1,28.4H13.7c-4.5,0-8.2,3.6-8.2,8.2
			s3.6,8.2,8.2,8.2h22.6c14,0,27.4-3.2,39.8-9.5c11.8-6,22.3-14.8,30.3-25.5C109.1,214,108.5,208.9,104.8,206.1z"></path>
		<path class="st0 IkVVhQYl_1" d="M127.9,91c1.5,1.2,3.3,1.7,5,1.7c2.4,0,4.9-1.1,6.5-3.2c13.6-17.6,34.2-27.7,56.4-27.7h47.6L218,87.3
			c-3.2,3.2-3.2,8.4,0,11.6c1.6,1.6,3.7,2.4,5.8,2.4c2.1,0,4.2-0.8,5.8-2.4L269,59.5c3.2-3.2,3.2-8.4,0-11.6L229.5,8.5
			c-3.2-3.2-8.4-3.2-11.6,0c-3.2,3.2-3.2,8.4,0,11.6l25.4,25.4h-47.6c-27.3,0-52.6,12.4-69.4,34C123.7,83.2,124.3,88.3,127.9,91z"></path>
		<path class="st0 IkVVhQYl_2" d="M229.6,199.2c-3.2-3.2-8.4-3.2-11.6,0c-3.2,3.2-3.2,8.4,0,11.6l25.4,25.4h-47.6c-39.4,0-71.4-32-71.4-71.4
			v-31.5c0-48.4-39.4-87.7-87.7-87.7H14.1c-4.5,0-8.2,3.6-8.2,8.2s3.6,8.2,8.2,8.2h22.6c39.4,0,71.4,32,71.4,71.4v31.5
			c0,48.4,39.4,87.7,87.7,87.7h47.6L218,278c-3.2,3.2-3.2,8.4,0,11.6c1.6,1.6,3.7,2.4,5.8,2.4s4.2-0.8,5.8-2.4l39.4-39.4
			c3.2-3.2,3.2-8.4,0-11.6L229.6,199.2z"></path>
	</g>
</g>
<style data-made-with="vivus-instant">.IkVVhQYl_0{stroke-dasharray:244 246;stroke-dashoffset:245;animation:IkVVhQYl_draw 2000ms linear 0ms forwards;}.IkVVhQYl_1{stroke-dasharray:514 516;stroke-dashoffset:515;animation:IkVVhQYl_draw 2000ms linear 500ms forwards;}.IkVVhQYl_2{stroke-dasharray:977 979;stroke-dashoffset:978;animation:IkVVhQYl_draw 2000ms linear 1000ms forwards;}@keyframes IkVVhQYl_draw{100%{stroke-dashoffset:0;}}@keyframes IkVVhQYl_fade{0%{stroke-opacity:1;}94.44444444444444%{stroke-opacity:1;}100%{stroke-opacity:0;}}</style></svg>
