<!--?xml version="1.0" encoding="utf-8"?-->
<!-- Generator: Adobe Illustrator 21.0.0, SVG Export Plug-In . SVG Version: 6.00 Build 0)  -->
<svg version="1.1" id="Capa_1" xmlns="http://www.w3.org/2000/svg" xmlns:xlink="http://www.w3.org/1999/xlink" x="0px" y="0px" viewBox="0 0 360 276" style="" xml:space="preserve" class="">
<style type="text/css">
	.st0{fill:none;stroke:#231F20;stroke-width:3;stroke-miterlimit:10;}
</style>
<g>
	<g>
		<path class="st0 KDnaAAqX_0" d="M342.6,78.4l-139.2-68c-12-6-32.4-6-44.4,0l-142.4,68C6.6,83.2,5,90,5,93.6c0,3.6,1.6,10,11.6,15.2l11.6,5.6
			v64c-7.2,2.8-12.4,10-12.4,18s5.2,15.2,12,18l-18,57.2h50.4l-18-57.2c7.2-2.8,12-10,12-18c0-8.4-5.2-15.2-12.4-18v-57.2L63,131.6
			v83.2c0,1.2,0.4,2.4,1.2,3.6c2,2.4,39.2,53.2,115.2,53.2s113.2-51.2,114.8-53.2c0.8-1.2,1.2-2.4,1.2-3.6V132l47.2-23.2
			c10-4.8,11.6-11.6,11.6-15.2C353.8,90,352.6,83.2,342.6,78.4z M282.6,212.8c-6.4,8-40.8,46.4-103.2,46.4s-96.8-38.4-103.2-46.4
			v-75.6l82.8,39.6c6,2.8,14,4.4,22,4.4c8.4,0,16.4-1.6,22.4-4.8l79.2-38.8V212.8z M337,97.6l-48,23.6c-2,0-3.6,0.8-4.4,2.4
			l-86.8,42c-8.4,4.4-24.8,4.4-33.6,0L57.4,114.4L180.2,100c3.6-0.4,6-3.6,5.6-6.8c-0.4-3.6-3.6-6-6.8-5.6L36.6,104.4l-14.4-6.8
			C18.6,96,17.8,94,17.8,94c0-0.4,0.8-2,4.4-3.6L164.6,22c4.4-2,10.4-3.2,16.4-3.2c6.4,0,12.8,1.2,16.8,3.2L337,90
			c3.6,1.6,4.4,3.2,4.4,4C341.4,94,340.2,96,337,97.6z"></path>
	</g>
</g>
<style data-made-with="vivus-instant">.KDnaAAqX_0{stroke-dasharray:2940 2942;stroke-dashoffset:2941;}.start .KDnaAAqX_0{animation:KDnaAAqX_draw 8360ms ease-in 0ms forwards;}@keyframes KDnaAAqX_draw{100%{stroke-dashoffset:0;}}@keyframes KDnaAAqX_fade{0%{stroke-opacity:1;}98.20627802690584%{stroke-opacity:1;}100%{stroke-opacity:0;}}</style></svg>
